<?xml version="1.0" encoding="UTF-8"?>
<svg id="Layer_1" data-name="Layer 1" xmlns="http://www.w3.org/2000/svg" viewBox="0 0 1074.81 859.67">
  <defs>
    <style>
      .cls-1 {
        stroke: #000;
        stroke-miterlimit: 10;
      }

      .cls-2 {
        fill: #fff;
      }
    </style>
  </defs>
  <g>
    <g>
      <rect x="82.22" width="18.68" height="98.6"/>
      <rect x="82.22" y="138.16" width="18.68" height="427.75"/>
    </g>
    <g>
      <rect class="cls-2" x="379.46" y="242.16" width="18.68" height="24.7"/>
      <rect x="379.46" width="18.68" height="242.16"/>
      <rect x="379.46" y="266.87" width="18.68" height="299.05"/>
    </g>
    <g>
      <rect class="cls-2" x="676.69" y="439.24" width="18.68" height="24.7"/>
      <rect x="676.69" width="18.68" height="439.24"/>
      <rect x="676.69" y="463.94" width="18.68" height="101.97"/>
    </g>
    <g>
      <rect class="cls-2" x="973.91" y="81.98" width="18.68" height="24.7"/>
      <rect x="973.91" width="18.68" height="81.98"/>
      <rect x="973.91" y="106.69" width="18.68" height="459.23"/>
    </g>
    <rect y="94.78" width="183.11" height="18.68"/>
    <rect y="138.16" width="183.11" height="18.68"/>
    <rect x="297.25" y="223.48" width="183.11" height="18.68"/>
    <rect x="297.25" y="266.87" width="183.11" height="18.68"/>
    <rect x="594.47" y="420.56" width="183.11" height="18.68"/>
    <rect x="594.47" y="463.94" width="183.11" height="18.68"/>
    <rect x="891.7" y="63.3" width="183.11" height="18.68"/>
    <rect x="891.7" y="106.69" width="183.11" height="18.68"/>
    <path class="cls-1" d="M9.68,762.95l82.9-147.37,82.71,147.37h-15.11l-67.61-120.66-67.79,120.66H9.68Z"/>
    <path class="cls-1" d="M455.7,689.26v-73.69h12.34v73.69c0,20.39-7.18,37.76-21.55,52.13-14.37,14.37-31.75,21.55-52.13,21.55s-37.76-7.19-52.13-21.55c-14.37-14.37-21.55-31.75-21.55-52.13v-73.69h12.34v73.69c0,11.05,2.73,21.31,8.2,30.76,5.46,9.46,12.92,16.92,22.38,22.38,9.46,5.47,19.71,8.2,30.76,8.2s21.31-2.73,30.76-8.2c9.46-5.46,16.92-12.92,22.38-22.38,5.46-9.46,8.2-19.71,8.2-30.76Z"/>
    <path class="cls-1" d="M741.67,689.27c5.63-3.57,10.16-8.34,13.52-14.29,3.39-5.95,5.07-12.42,5.07-19.43,0-11.07-3.9-20.48-11.7-28.28-7.8-7.8-17.21-11.7-28.28-11.7h-107.39v147.36h12.35v-135.03h95.04c7.61,0,14.13,2.71,19.54,8.1,5.39,5.42,8.1,11.93,8.1,19.54s-2.71,14.08-8.1,19.43c-5.42,5.35-11.93,8.01-19.54,8.01h-28.86v12.54h28.86c7.61,0,14.13,2.66,19.54,8.01,5.39,5.35,8.1,11.82,8.1,19.43v39.98h12.33v-39.98c0-7.01-1.68-13.47-5.07-19.43-3.36-5.95-7.89-10.72-13.52-14.27Z"/>
    <path class="cls-1" d="M900.45,762.95l82.9-147.37,82.71,147.37h-15.11l-67.61-120.66-67.79,120.66h-15.11Z"/>
    <circle class="cls-1" cx="91.56" cy="710.27" r="8.41"/>
    <circle class="cls-1" cx="983.47" cy="710.5" r="8.41"/>
  </g>
  <g>
    <path d="M63.4,810.64c4.21,0,7.81,1.5,10.82,4.51,3,3,4.5,6.61,4.5,10.82v33.71h-4.11v-33.71c0-3.06-1.09-5.7-3.28-7.91-2.19-2.21-4.83-3.31-7.94-3.31s-5.75,1.1-7.94,3.31c-2.19,2.21-3.28,4.84-3.28,7.91v33.71h-4.17v-33.71c0-3.06-1.09-5.7-3.28-7.91-2.19-2.21-4.83-3.31-7.94-3.31s-5.75,1.1-7.94,3.31c-2.19,2.21-3.28,4.84-3.28,7.91v33.71h-4.11v-33.71c0-4.21,1.5-7.82,4.5-10.82,3-3,6.61-4.51,10.82-4.51,2.82,0,5.4,.69,7.75,2.08,2.35,1.39,4.2,3.27,5.55,5.64,1.35-2.37,3.2-4.25,5.55-5.64,2.35-1.39,4.93-2.08,7.75-2.08Z"/>
    <path d="M148.17,835.16v-24.52h4.11v24.52c0,6.78-2.39,12.56-7.17,17.35-4.78,4.78-10.56,7.17-17.35,7.17s-12.56-2.39-17.35-7.17c-4.78-4.78-7.17-10.56-7.17-17.35v-24.52h4.11v24.52c0,3.68,.91,7.09,2.73,10.24,1.82,3.15,4.3,5.63,7.45,7.45,3.15,1.82,6.56,2.73,10.24,2.73s7.09-.91,10.24-2.73c3.15-1.82,5.63-4.3,7.45-7.45,1.82-3.15,2.73-6.56,2.73-10.24Z"/>
    <path d="M190.09,810.64h35.73v4.11h-35.73c-2.53,0-4.7,.9-6.5,2.7s-2.7,3.97-2.7,6.5,.9,4.69,2.7,6.47c1.8,1.78,3.96,2.67,6.5,2.67h22.43c3.68,0,6.81,1.3,9.41,3.89,2.59,2.59,3.89,5.73,3.89,9.41s-1.3,6.81-3.89,9.41c-2.6,2.59-5.73,3.89-9.41,3.89h-35.73v-4.11h35.73c2.53,0,4.7-.9,6.5-2.7,1.8-1.8,2.7-3.96,2.7-6.5s-.9-4.69-2.7-6.47c-1.8-1.78-3.96-2.67-6.5-2.67h-22.43c-3.68,0-6.81-1.3-9.41-3.89-2.6-2.59-3.89-5.73-3.89-9.41s1.3-6.81,3.89-9.41c2.59-2.59,5.73-3.89,9.41-3.89Z"/>
    <path d="M262.66,814.75h-4.11v40.82h4.11v4.11h-12.32v-4.11h4.11v-40.82h-4.11v-4.11h12.32v4.11Z"/>
    <path d="M294.35,852.5c-4.78-4.78-7.17-10.56-7.17-17.35s2.39-12.56,7.17-17.35c4.78-4.78,10.56-7.17,17.35-7.17h24.52v4.11h-24.52c-3.68,0-7.09,.91-10.24,2.73-3.15,1.82-5.63,4.3-7.45,7.45-1.82,3.15-2.73,6.56-2.73,10.24s.91,7.09,2.73,10.24c1.82,3.15,4.3,5.63,7.45,7.45,3.15,1.82,6.56,2.73,10.24,2.73h24.52v4.11h-24.52c-6.78,0-12.56-2.39-17.35-7.17Z"/>
    <path d="M397.5,814.75v-4.11h49.03v4.11h-22.43v44.93h-4.17v-44.93h-22.43Z"/>
    <path d="M469.03,852.5c-4.78-4.78-7.17-10.56-7.17-17.35s2.39-12.56,7.17-17.35c4.78-4.78,10.56-7.17,17.35-7.17h24.52v4.11h-24.52c-5.27,0-9.84,1.77-13.7,5.3-3.86,3.54-6.06,7.88-6.59,13.03h44.8v4.17h-44.8c.53,5.15,2.73,9.49,6.59,13.03,3.86,3.53,8.43,5.3,13.7,5.3h24.52v4.11h-24.52c-6.78,0-12.56-2.39-17.35-7.17Z"/>
    <path d="M542.58,852.5c-4.78-4.78-7.17-10.56-7.17-17.35s2.39-12.56,7.17-17.35c4.78-4.78,10.56-7.17,17.35-7.17h24.51v4.11h-24.51c-3.68,0-7.09,.91-10.24,2.73-3.15,1.82-5.63,4.3-7.45,7.45s-2.73,6.56-2.73,10.24,.91,7.09,2.73,10.24,4.3,5.63,7.45,7.45,6.56,2.73,10.24,2.73h24.51v4.11h-24.51c-6.78,0-12.56-2.39-17.35-7.17Z"/>
    <path d="M653.89,833.07v-22.43h4.11v49.03h-4.11v-22.43h-40.82v22.43h-4.11v-49.03h4.11v22.43h40.82Z"/>
    <path d="M732.59,810.64h35.73v4.11h-35.73c-2.53,0-4.7,.9-6.5,2.7s-2.7,3.97-2.7,6.5,.9,4.69,2.7,6.47c1.8,1.78,3.96,2.67,6.5,2.67h22.43c3.68,0,6.81,1.3,9.41,3.89s3.89,5.73,3.89,9.41-1.3,6.81-3.89,9.41-5.73,3.89-9.41,3.89h-35.73v-4.11h35.73c2.53,0,4.7-.9,6.5-2.7,1.8-1.8,2.7-3.96,2.7-6.5s-.9-4.69-2.7-6.47c-1.8-1.78-3.96-2.67-6.5-2.67h-22.43c-3.68,0-6.81-1.3-9.41-3.89-2.6-2.59-3.89-5.73-3.89-9.41s1.3-6.81,3.89-9.41,5.73-3.89,9.41-3.89Z"/>
    <path d="M792.84,814.75v-4.11h49.03v4.11h-22.43v44.93h-4.17v-44.93h-22.43Z"/>
    <path d="M864.37,817.81c4.78-4.78,10.56-7.17,17.35-7.17s12.56,2.39,17.35,7.17,7.17,10.56,7.17,17.35-2.39,12.56-7.17,17.35c-4.78,4.78-10.56,7.17-17.35,7.17s-12.56-2.39-17.35-7.17-7.17-10.56-7.17-17.35,2.39-12.56,7.17-17.35Zm7.11,35.03c3.15,1.82,6.56,2.73,10.24,2.73s7.09-.91,10.24-2.73,5.63-4.3,7.45-7.45,2.73-6.56,2.73-10.24-.91-7.09-2.73-10.24-4.3-5.63-7.45-7.45c-3.15-1.82-6.56-2.73-10.24-2.73s-7.09,.91-10.24,2.73c-3.15,1.82-5.63,4.3-7.45,7.45-1.82,3.15-2.73,6.56-2.73,10.24s.91,7.09,2.73,10.24c1.82,3.15,4.3,5.63,7.45,7.45Zm12.41-19.86c.59,.59,.89,1.32,.89,2.18s-.3,1.59-.89,2.18-1.32,.89-2.18,.89-1.58-.3-2.18-.89c-.59-.59-.89-1.32-.89-2.18s.3-1.58,.89-2.18,1.32-.89,2.18-.89,1.58,.3,2.18,.89Z"/>
    <path d="M979.78,823.94c0,2.33-.56,4.48-1.69,6.47-1.12,1.98-2.63,3.57-4.51,4.75,1.88,1.19,3.38,2.77,4.51,4.75,1.12,1.98,1.69,4.14,1.69,6.47v13.3h-4.11v-13.3c0-2.53-.9-4.69-2.7-6.47-1.8-1.78-3.96-2.67-6.5-2.67h-31.63v22.43h-4.11v-49.03h35.73c3.68,0,6.81,1.3,9.41,3.89,2.59,2.6,3.89,5.73,3.89,9.41Zm-44.93-9.19v18.33h31.63c2.53,0,4.7-.89,6.5-2.67,1.8-1.78,2.7-3.93,2.7-6.47s-.9-4.7-2.7-6.5c-1.8-1.8-3.96-2.7-6.5-2.7h-31.63Z"/>
    <path d="M1011.47,852.5c-4.78-4.78-7.17-10.56-7.17-17.35s2.39-12.56,7.17-17.35c4.78-4.78,10.56-7.17,17.35-7.17h24.52v4.11h-24.52c-5.27,0-9.84,1.77-13.7,5.3-3.86,3.54-6.06,7.88-6.59,13.03h44.8v4.17h-44.8c.53,5.15,2.73,9.49,6.59,13.03,3.86,3.53,8.43,5.3,13.7,5.3h24.52v4.11h-24.52c-6.78,0-12.56-2.39-17.35-7.17Z"/>
  </g>
</svg>