<?xml version="1.0" encoding="utf-8"?>
<!-- Generator: Adobe Illustrator 27.0.0, SVG Export Plug-In . SVG Version: 6.00 Build 0)  -->
<svg version="1.1" id="Layer_1" xmlns="http://www.w3.org/2000/svg" xmlns:xlink="http://www.w3.org/1999/xlink" x="0px" y="0px"
	 viewBox="0 0 768 768" style="enable-background:new 0 0 768 768;" xml:space="preserve">
<path d="M384,128c70.7,0,128,57.3,128,128s-57.3,128-128,128s-128-57.3-128-128S313.3,128,384,128 M384,448
	c141.4,0,256,57.3,256,128v64H128v-64C128,505.3,242.6,448,384,448"/>
<path d="M215.7,202.6h-10.9c-24.1,0-43.6,19.4-43.6,43.4v43.2c0,24,19.5,43.4,43.6,43.4h10.9c12,0,21.8-9.7,21.8-21.7v-86.7
	C237.5,212.3,227.8,202.6,215.7,202.6 M563.2,202.6h-10.9c-12,0-21.8,9.7-21.8,21.7V311c0,12,9.8,21.7,21.8,21.7h10.9
	c24.1,0,43.6-19.5,43.6-43.4V246C606.8,222,587.2,202.6,563.2,202.6 M387.1,64.5c-97.5,0-179.1,64.3-182.2,157v75.9
	c0,6,4.9,10.8,10.9,10.8h10.9c6,0,10.9-4.9,10.9-10.8v-75.9c0-77.7,71.3-124.4,149.5-124.4c78.1,0,144.4,44.5,144.4,122.2v75.9
	c0,6,4.9,10.8,10.9,10.8h10.9c6,0,10.9-4.9,10.9-10.8v-75.9c0.2-94.3-87.3-154.8-184.8-154.8"/>
</svg>
